<svg id="Layer_1" data-name="Layer 1" xmlns="http://www.w3.org/2000/svg" viewBox="0 0 768.26 177.54"><defs><style>.cls-1{fill:#a5a5a5;}.cls-2{fill:#d6d6d6;}.cls-3{fill:#a9ff71;}.cls-4{fill:#53586c;}.cls-5{fill:#507aff;}.cls-6{fill:#ff7373;}.cls-7{fill:#ff99a3;}.cls-8{fill:#f0ffb3;}.cls-9{fill:#ef9292;}.cls-10{fill:#ffa1a1;}.cls-11{fill:#f66;}.cls-12{fill:#ff8080;}</style></defs><polyline class="cls-1" points="3.2 69.93 28.78 50.74 188.69 50.74 188.69 133.89 163.1 153.08"/><rect class="cls-2" x="3.2" y="69.93" width="159.91" height="83.15"/><polygon class="cls-3" points="99.14 149.88 99.14 69.93 124.73 50.74 92.75 50.74 67.16 69.93 67.16 149.88 99.14 149.88"/><path class="cls-4" d="M290.76,416.29H130.85a3.2,3.2,0,0,1-3.2-3.2V329.94a3.19,3.19,0,0,1,3.2-3.19H290.76a3.19,3.19,0,0,1,3.19,3.19v83.15A3.19,3.19,0,0,1,290.76,416.29ZM134.05,409.9H287.56V333.14H134.05Z" transform="translate(-127.65 -260.01)"/><path class="cls-4" d="M290.76,416.29a3.19,3.19,0,0,1-1.92-5.75l24.3-18.23V314H157.5L132.77,332.5a3.2,3.2,0,1,1-3.84-5.12l25.59-19.18a3.14,3.14,0,0,1,1.91-.64H316.34a3.19,3.19,0,0,1,3.2,3.19v83.16a3.17,3.17,0,0,1-1.28,2.55l-25.58,19.19A3.21,3.21,0,0,1,290.76,416.29Z" transform="translate(-127.65 -260.01)"/><path class="cls-4" d="M290.76,333.14a3.2,3.2,0,0,1-1.78-5.86l24-16a3.2,3.2,0,0,1,3.55,5.32l-24,16A3.12,3.12,0,0,1,290.76,333.14Z" transform="translate(-127.65 -260.01)"/><path class="cls-4" d="M194.81,413.09a3.2,3.2,0,0,1-3.2-3.19v-80a3.24,3.24,0,0,1,1.28-2.56l25.59-19.18a3.2,3.2,0,1,1,3.84,5.11L198,331.54V409.9A3.19,3.19,0,0,1,194.81,413.09Z" transform="translate(-127.65 -260.01)"/><path class="cls-4" d="M226.79,413.09a3.2,3.2,0,0,1-3.2-3.19v-80a3.24,3.24,0,0,1,1.28-2.56l25.59-19.18a3.2,3.2,0,1,1,3.84,5.11L230,331.54V409.9A3.19,3.19,0,0,1,226.79,413.09Z" transform="translate(-127.65 -260.01)"/><path class="cls-4" d="M182,397.1H150a3.19,3.19,0,0,1-3.2-3.19,3.2,3.2,0,0,0-3.2-3.2,3.2,3.2,0,0,1-3.2-3.2V349.13a3.21,3.21,0,0,1,3.2-3.2,3.2,3.2,0,0,0,3.2-3.19,3.2,3.2,0,0,1,3.2-3.2h32a3.2,3.2,0,1,1,0,6.39H152.69a9.63,9.63,0,0,1-5.85,5.85v33.08a9.66,9.66,0,0,1,5.85,5.85H182a3.2,3.2,0,1,1,0,6.39Z" transform="translate(-127.65 -260.01)"/><path class="cls-4" d="M271.57,397.11h-32a3.2,3.2,0,1,1,0-6.4h29.33a9.59,9.59,0,0,1,5.85-5.84V351.79a9.63,9.63,0,0,1-5.85-5.85H239.59a3.2,3.2,0,0,1,0-6.4h32a3.21,3.21,0,0,1,3.2,3.2,3.2,3.2,0,0,0,3.19,3.2,3.2,3.2,0,0,1,3.2,3.2v38.38a3.19,3.19,0,0,1-3.2,3.19,3.2,3.2,0,0,0-3.19,3.2A3.2,3.2,0,0,1,271.57,397.11Z" transform="translate(-127.65 -260.01)"/><path class="cls-5" d="M443.08,422.75h23.67s13.11-45.91,14.79-65.1c-5.91-5.59-38.46-5.91-38.46-5.91Z" transform="translate(-127.65 -260.01)"/><path class="cls-6" d="M493.37,369.64c7.85-20.36,41.43-59.33,41.43-59.33h29.58S609,364.18,609,384.69a52.54,52.54,0,0,1-1.24,11.43L554.21,414Z" transform="translate(-127.65 -260.01)"/><path class="cls-7" d="M534.8,310.31S493.35,279,502.25,268.89c5.52-6.25,29.59,11.84,29.59,11.84S544.31,263,549.59,263s17.75,17.76,17.75,17.76,24.07-18.09,29.59-11.84c8.9,10.08-32.55,41.42-32.55,41.42Z" transform="translate(-127.65 -260.01)"/><path class="cls-8" d="M510.23,397.54,542.6,404a22.3,22.3,0,0,0,9.82-.23l10-2.51v-1.18c0-10.27-5-15-14.93-17.47L480.38,367.7l-11.19,44.76,56,18.65c14.8,5.6,17.41,5.29,48.5-7.45l41-18.66h0A20.77,20.77,0,0,0,591,394.13l-28.58,7.14" transform="translate(-127.65 -260.01)"/><path class="cls-4" d="M466.75,425.71H443.08a3,3,0,0,1-3-3v-71a2.94,2.94,0,0,1,3-3h0c.34,0,8.36.09,17.25.87,16.84,1.48,21.32,4.05,23.22,5.86a3,3,0,0,1,.92,2.4c-1.68,19.25-14.36,63.76-14.9,65.65A3,3,0,0,1,466.75,425.71ZM446,419.79H464.5c2.51-9,12-43.62,13.92-60.69-1.93-1-6.75-2.52-18.59-3.56-5.45-.48-10.67-.69-13.8-.78Z" transform="translate(-127.65 -260.01)"/><path class="cls-4" d="M539.3,437.55c-4.77,0-9-1.33-15.15-3.65l-55.9-18.63a3,3,0,0,1,1.88-5.62l56,18.66.11,0c13.64,5.15,15.41,5.24,46.28-7.41l38-17.25A17.7,17.7,0,0,0,591.76,397l-28.59,7.14a3,3,0,1,1-1.43-5.74l28.58-7.14a23.59,23.59,0,0,1,27,12.42,3,3,0,0,1-1.42,4l-41,18.65-.1,0C555.52,434.29,546.76,437.55,539.3,437.55Z" transform="translate(-127.65 -260.01)"/><path class="cls-4" d="M547,407.4a25.08,25.08,0,0,1-5-.49l-32.37-6.47a3,3,0,1,1,1.15-5.8l32.38,6.47a19.6,19.6,0,0,0,8.52-.2l7.77-1.94c-.3-7.56-3.83-11.27-12.62-13.47l-67.11-14.91a3,3,0,0,1,1.28-5.78l67.16,14.92.07,0c11.87,3,17.16,9.24,17.16,20.34v1.18a3,3,0,0,1-2.24,2.87l-10,2.51A25.36,25.36,0,0,1,547,407.4Z" transform="translate(-127.65 -260.01)"/><path class="cls-4" d="M607.79,399.08a2.89,2.89,0,0,1-.65-.08,3,3,0,0,1-2.25-3.53,49.19,49.19,0,0,0,1.17-10.78c0-15.58-30.27-55.81-43.07-71.42H536.16c-5.31,6.27-33.15,39.59-40,57.44a3,3,0,0,1-5.53-2.13c7.94-20.61,40.56-58.59,41.94-60.2a3,3,0,0,1,2.25-1h29.58a3,3,0,0,1,2.28,1.08c.12.13,11.37,13.74,22.47,29.69C604.29,359.9,612,375.57,612,384.69a55.39,55.39,0,0,1-1.31,12.07A3,3,0,0,1,607.79,399.08Z" transform="translate(-127.65 -260.01)"/><path class="cls-4" d="M579.18,313.27H520a3,3,0,0,1,0-5.92h59.18a3,3,0,1,1,0,5.92Z" transform="translate(-127.65 -260.01)"/><path class="cls-4" d="M564.38,313.27H534.8a3,3,0,0,1-1.79-.6c-3.43-2.59-33.56-25.73-34.92-39.26a8.3,8.3,0,0,1,1.94-6.48,7.31,7.31,0,0,1,5.73-2.31c7.57,0,20,8.18,25.43,12,1.29-1.74,3.18-4.19,5.29-6.67,7.49-8.79,10.94-9.92,13.11-9.92s5.62,1.13,13.11,9.92c2.11,2.48,4,4.93,5.29,6.67,5.38-3.8,17.86-12,25.43-12a7.29,7.29,0,0,1,5.73,2.31,8.3,8.3,0,0,1,1.94,6.48c-1.36,13.53-31.49,36.67-34.92,39.26A3,3,0,0,1,564.38,313.27Zm-28.59-5.92h27.6c12.2-9.35,31-26.45,31.81-34.53a2.32,2.32,0,0,0-.49-2,1.86,1.86,0,0,0-1.29-.32c-5.52,0-17.84,7.71-24.3,12.56a3,3,0,0,1-4.2-.66c-5.94-8.45-13.07-16.11-15.33-16.49-2.27.38-9.4,8-15.33,16.49a3,3,0,0,1-4.2.66c-6.46-4.85-18.78-12.56-24.3-12.56a1.88,1.88,0,0,0-1.29.32,2.32,2.32,0,0,0-.49,2C504.79,280.91,523.59,298,535.79,307.35Z" transform="translate(-127.65 -260.01)"/><path class="cls-4" d="M558.41,387.24a2.91,2.91,0,0,1-2.1-.88,3,3,0,0,1,0-4.18,6.89,6.89,0,0,0,2.14-4.89c0-3.83-2.75-6.13-8.92-7.47l-.65-.14-.5-.12c-9-1.95-13.6-6.41-13.6-13.25,0-7.42,6.64-13.45,14.8-13.45,7.78,0,14.27,5.52,14.78,12.56a3,3,0,0,1-5.91.43c-.28-4-4.18-7.07-8.87-7.07-4.9,0-8.89,3.38-8.89,7.53,0,3.83,2.76,6.13,8.94,7.47.26.06.48.1.65.15l.51.11c9,2,13.57,6.41,13.57,13.25a12.74,12.74,0,0,1-3.89,9.09A2.92,2.92,0,0,1,558.41,387.24Z" transform="translate(-127.65 -260.01)"/><path class="cls-4" d="M549.59,384.28a3,3,0,0,1-3-3V339.9a3,3,0,1,1,5.92,0v41.42A3,3,0,0,1,549.59,384.28Z" transform="translate(-127.65 -260.01)"/><path class="cls-9" d="M750.73,327.89V310.15H745.8c-3.77,0-5.46,4.42-5.46,8.19v19.1c0,3.77,1.69,5.46,5.46,5.46H887.72c3.77,0,5.46-1.69,5.46-5.46v-4.09h-137C752.42,333.35,750.73,331.66,750.73,327.89Z" transform="translate(-127.65 -260.01)"/><path class="cls-10" d="M887.72,310.15h-137v17.74c0,3.77,1.69,5.46,5.46,5.46h137v-15C893.18,314.57,891.49,310.15,887.72,310.15Z" transform="translate(-127.65 -260.01)"/><path class="cls-11" d="M761.54,356.48H887.72V342.9H745.8V403c0,7.53,6.11,16.37,13.64,16.37h2.37a14.81,14.81,0,0,1-.27-2.79Z" transform="translate(-127.65 -260.01)"/><path class="cls-12" d="M887.72,403V356.48H761.54v60a14.81,14.81,0,0,0,.27,2.79H874.08C881.61,419.32,887.72,410.48,887.72,403Z" transform="translate(-127.65 -260.01)"/><path class="cls-4" d="M887.72,345.63H745.8c-5.28,0-8.19-2.91-8.19-8.19v-19.1c0-5.43,2.81-10.92,8.19-10.92H887.72c5.38,0,8.19,5.49,8.19,10.92v19.1C895.91,342.72,893,345.63,887.72,345.63ZM745.8,312.88c-1.86,0-2.73,3.26-2.73,5.46v19.1c0,2.27.46,2.73,2.73,2.73H887.72c2.27,0,2.73-.46,2.73-2.73v-19.1c0-2.2-.87-5.46-2.73-5.46Z" transform="translate(-127.65 -260.01)"/><path class="cls-4" d="M874.08,422.05H759.44c-9.22,0-16.37-10.27-16.37-19.1V342.9a2.73,2.73,0,0,1,2.73-2.73H887.72a2.73,2.73,0,0,1,2.73,2.73V403C890.45,411.78,883.3,422.05,874.08,422.05ZM748.53,345.63V403c0,6.14,5,13.64,10.91,13.64H874.08c5.88,0,10.91-7.5,10.91-13.64V345.63Z" transform="translate(-127.65 -260.01)"/><path class="cls-4" d="M815.5,310.15c-17.9,0-34.42-11.85-39.27-28.18a9.71,9.71,0,0,1,1.58-8.66,10.07,10.07,0,0,1,8-4.1,9.61,9.61,0,0,1,2.76.41,43.11,43.11,0,0,1,20.87,13.93,37.49,37.49,0,0,1,8.78,23.87A2.73,2.73,0,0,1,815.5,310.15Zm-29.68-35.48a4.58,4.58,0,0,0-3.63,1.9,4.3,4.3,0,0,0-.73,3.84c3.92,13.2,16.77,23,31.18,24.17A32.4,32.4,0,0,0,805.22,287,37.51,37.51,0,0,0,787,274.85,4.22,4.22,0,0,0,785.82,274.67Z" transform="translate(-127.65 -260.01)"/><path class="cls-4" d="M815.5,310.15a2.73,2.73,0,0,1-2.73-2.73c0-18.14,10.48-33,26.71-37.8a9.61,9.61,0,0,1,2.76-.41,10.07,10.07,0,0,1,8,4.1,9.71,9.71,0,0,1,1.58,8.66C846.75,299.09,832.48,310.15,815.5,310.15Zm26.74-35.48a4.11,4.11,0,0,0-1.2.18c-13,3.86-21.7,15.37-22.71,29.72a30.78,30.78,0,0,0,16.86-6.7,34.92,34.92,0,0,0,11.41-17.45,4.31,4.31,0,0,0-.72-3.85A4.61,4.61,0,0,0,842.24,274.67Z" transform="translate(-127.65 -260.01)"/><path class="cls-4" d="M816.76,419.32a2.73,2.73,0,0,1-2.73-2.73V313.44l-17.31,15.14a2.73,2.73,0,1,1-3.59-4.11L815,305.37a2.73,2.73,0,0,1,4.53,2.05V416.59A2.73,2.73,0,0,1,816.76,419.32Z" transform="translate(-127.65 -260.01)"/><path class="cls-4" d="M833.14,329.25a2.73,2.73,0,0,1-2.08-.95l-16.37-19.1a2.73,2.73,0,0,1,4.14-3.56l16.38,19.11a2.73,2.73,0,0,1-.3,3.85A2.69,2.69,0,0,1,833.14,329.25Z" transform="translate(-127.65 -260.01)"/></svg>